<?xml version="1.0" encoding="UTF-8" standalone="no"?>
<svg
   xmlns:dc="http://purl.org/dc/elements/1.1/"
   xmlns:cc="http://creativecommons.org/ns#"
   xmlns:rdf="http://www.w3.org/1999/02/22-rdf-syntax-ns#"
   xmlns:svg="http://www.w3.org/2000/svg"
   xmlns="http://www.w3.org/2000/svg"
   xmlns:sodipodi="http://sodipodi.sourceforge.net/DTD/sodipodi-0.dtd"
   xmlns:inkscape="http://www.inkscape.org/namespaces/inkscape"
   width="512"
   height="512"
   viewBox="0 0 135.46666 135.46667"
   version="1.1"
   id="svg8"
   inkscape:version="1.0 (4035a4fb49, 2020-05-01)"
   sodipodi:docname="gridscore2.svg">
  <defs
     id="defs2" />
  <sodipodi:namedview
     id="base"
     pagecolor="#ffffff"
     bordercolor="#666666"
     borderopacity="1.0"
     inkscape:pageopacity="0.0"
     inkscape:pageshadow="2"
     inkscape:zoom="0.63583752"
     inkscape:cx="362.01695"
     inkscape:cy="381.46666"
     inkscape:document-units="mm"
     inkscape:current-layer="layer6"
     inkscape:document-rotation="0"
     showgrid="false"
     units="px"
     inkscape:snap-bbox="true"
     inkscape:bbox-paths="true"
     inkscape:snap-bbox-edge-midpoints="true"
     inkscape:bbox-nodes="true"
     inkscape:snap-bbox-midpoints="true"
     inkscape:window-width="1491"
     inkscape:window-height="1198"
     inkscape:window-x="1796"
     inkscape:window-y="78"
     inkscape:window-maximized="0">
    <inkscape:grid
       type="xygrid"
       id="grid833"
       empspacing="2" />
  </sodipodi:namedview>
  <metadata
     id="metadata5">
    <rdf:RDF>
      <cc:Work
         rdf:about="">
        <dc:format>image/svg+xml</dc:format>
        <dc:type
           rdf:resource="http://purl.org/dc/dcmitype/StillImage" />
        <dc:title></dc:title>
      </cc:Work>
    </rdf:RDF>
  </metadata>
  <g
     inkscape:label="Layer 1"
     inkscape:groupmode="layer"
     id="layer1">
    <rect
       style="fill:#325d88;stroke:none;stroke-width:0.79375;stroke-linecap:round;stroke-linejoin:bevel;fill-opacity:1"
       id="rect835"
       width="135.46666"
       height="135.46666"
       x="0"
       y="0"
       ry="4.2333331" />
  </g>
  <g
     inkscape:label="final"
     id="layer6"
     inkscape:groupmode="layer">
    <g
       transform="translate(11.859359,164.74886)"
       id="g1140">
      <circle
         style="mix-blend-mode:normal;fill:#910080;fill-opacity:1;stroke:none;stroke-width:1.45199;stroke-linecap:round;stroke-linejoin:bevel"
         id="circle1048"
         cx="33.932915"
         cy="-112.50333"
         r="30.975611" />
      <circle
         r="30.975611"
         cy="-118.95658"
         cx="71.361786"
         id="circle1050"
         style="mix-blend-mode:normal;fill:#ff7c00;fill-opacity:1;stroke:none;stroke-width:1.45199;stroke-linecap:round;stroke-linejoin:bevel" />
      <circle
         r="30.975611"
         cy="-81.527718"
         cx="77.815033"
         id="circle1052"
         style="mix-blend-mode:normal;fill:#00a0f1;fill-opacity:1;stroke:none;stroke-width:1.45199;stroke-linecap:round;stroke-linejoin:bevel" />
      <circle
         style="mix-blend-mode:normal;fill:#5ec418;fill-opacity:1;stroke:none;stroke-width:1.45199;stroke-linecap:round;stroke-linejoin:bevel"
         id="circle1054"
         cx="40.386166"
         cy="-75.074478"
         r="30.975611" />
      <path
         d="m 48.489547,-139.84521 a 30.975612,30.975612 0 0 0 -8.103383,20.88865 30.975612,30.975612 0 0 0 16.419155,27.341997 30.975612,30.975612 0 0 0 8.10338,-20.888647 30.975612,30.975612 0 0 0 -16.419152,-27.342 z"
         style="mix-blend-mode:normal;fill:#ff7c80;fill-opacity:1;stroke:none;stroke-width:1.45199;stroke-linecap:round;stroke-linejoin:bevel"
         id="path1084" />
      <path
         d="m 54.942898,-102.41649 a 30.975612,30.975612 0 0 0 -8.10338,20.888649 30.975612,30.975612 0 0 0 16.419152,27.341999 30.975612,30.975612 0 0 0 8.102865,-20.888645 30.975612,30.975612 0 0 0 -16.418637,-27.342003 z"
         style="mix-blend-mode:normal;fill:#5ee9f2;fill-opacity:1;stroke:none;stroke-width:1.45199;stroke-linecap:round;stroke-linejoin:bevel"
         id="path1086" />
      <path
         d="m 77.786465,-112.50321 a 30.975612,30.975612 0 0 0 -27.313578,16.418636 30.975612,30.975612 0 0 0 20.888648,8.103383 30.975612,30.975612 0 0 0 27.342517,-16.418639 30.975612,30.975612 0 0 0 -20.889163,-8.10338 30.975612,30.975612 0 0 0 -0.02842,0 z"
         style="mix-blend-mode:normal;fill:#ffcef1;fill-opacity:1;stroke:none;stroke-width:1.45199;stroke-linecap:round;stroke-linejoin:bevel"
         id="path1088" />
      <path
         d="m 40.357742,-106.04986 a 30.975612,30.975612 0 0 0 -27.313578,16.41864 30.975612,30.975612 0 0 0 20.888648,8.103381 30.975612,30.975612 0 0 0 27.341999,-16.419153 30.975612,30.975612 0 0 0 -20.888647,-8.102868 30.975612,30.975612 0 0 0 -0.02842,0 z"
         style="mix-blend-mode:normal;fill:#bac48c;fill-opacity:1;stroke:none;stroke-width:1.45199;stroke-linecap:round;stroke-linejoin:bevel"
         id="path1090" />
      <path
         id="path1092"
         style="mix-blend-mode:normal;fill:#ffe18c;fill-opacity:1;stroke:none;stroke-width:1.45199;stroke-linecap:round;stroke-linejoin:bevel"
         d="m 43.265582,-105.91601 a 30.975612,30.975612 0 0 0 13.539223,14.301447 30.975612,30.975612 0 0 0 5.19e-4,0 30.975612,30.975612 0 0 0 0.01808,-0.02015 30.975612,30.975612 0 0 0 0.480076,-0.539502 30.975612,30.975612 0 0 0 0.140044,-0.161231 30.975612,30.975612 0 0 0 0.01757,-0.02067 30.975612,30.975612 0 0 0 0.138494,-0.162779 30.975612,30.975612 0 0 0 0.01705,-0.02067 30.975612,30.975612 0 0 0 0.154515,-0.185002 30.975612,30.975612 0 0 0 0.304374,-0.372586 30.975612,30.975612 0 0 0 0.735872,-0.952913 30.975612,30.975612 0 0 0 0.283702,-0.388607 30.975612,30.975612 0 0 0 0.262517,-0.371038 30.975612,30.975612 0 0 0 0.0155,-0.02222 30.975612,30.975612 0 0 0 0.02016,-0.02894 30.975612,30.975612 0 0 0 0.370001,-0.546219 30.975612,30.975612 0 0 0 0.01499,-0.02274 30.975612,30.975612 0 0 0 0.117306,-0.178801 30.975612,30.975612 0 0 0 0.01447,-0.02274 30.975612,30.975612 0 0 0 0.130225,-0.20257 30.975612,30.975612 0 0 0 0.255796,-0.407728 30.975612,30.975612 0 0 0 0.372073,-0.619083 30.975612,30.975612 0 0 0 0.107485,-0.184486 30.975612,30.975612 0 0 0 0.01344,-0.02377 30.975612,30.975612 0 0 0 0.236678,-0.419095 30.975612,30.975612 0 0 0 0.102835,-0.187071 30.975612,30.975612 0 0 0 0.01292,-0.02377 30.975612,30.975612 0 0 0 0.0067,-0.01292 30.975612,30.975612 0 0 0 0.126605,-0.235127 30.975612,30.975612 0 0 0 -18.009234,-7.969019 z" />
      <path
         id="path1097"
         style="mix-blend-mode:normal;fill:#ffcef8;fill-opacity:1;stroke:none;stroke-width:1.45199;stroke-linecap:round;stroke-linejoin:bevel"
         d="m 64.774346,-109.62431 a 30.975612,30.975612 0 0 0 -14.301454,13.539736 30.975612,30.975612 0 0 0 0.07803,0.0708 30.975612,30.975612 0 0 0 0.120923,0.109038 30.975612,30.975612 0 0 0 0.159165,0.14211 30.975612,30.975612 0 0 0 0.02067,0.01809 30.975612,30.975612 0 0 0 0.164333,0.144177 30.975612,30.975612 0 0 0 0.01654,0.01447 30.975612,30.975612 0 0 0 0.161229,0.139525 30.975612,30.975612 0 0 0 0.183451,0.156065 30.975612,30.975612 0 0 0 0.130741,0.109553 30.975612,30.975612 0 0 0 0.06563,0.05478 30.975612,30.975612 0 0 0 0.0093,0.0078 30.975612,30.975612 0 0 0 0.164333,0.135393 30.975612,30.975612 0 0 0 0.152445,0.124023 30.975612,30.975612 0 0 0 0.04444,0.03566 30.975612,30.975612 0 0 0 0.06408,0.05116 30.975612,30.975612 0 0 0 0.114204,0.09147 30.975612,30.975612 0 0 0 0.0217,0.01706 30.975612,30.975612 0 0 0 0.189135,0.148309 30.975612,30.975612 0 0 0 0.168982,0.130741 30.975612,30.975612 0 0 0 0.0217,0.01654 30.975612,30.975612 0 0 0 0.1695,0.129193 30.975612,30.975612 0 0 0 0.02222,0.01654 30.975612,30.975612 0 0 0 0.179834,0.134358 30.975612,30.975612 0 0 0 0.05891,0.04392 30.975612,30.975612 0 0 0 0.125573,0.0925 30.975612,30.975612 0 0 0 0.02222,0.01602 30.975612,30.975612 0 0 0 0.179319,0.129706 30.975612,30.975612 0 0 0 0.08113,0.05788 30.975612,30.975612 0 0 0 0.108519,0.07752 30.975612,30.975612 0 0 0 0.02222,0.0155 30.975612,30.975612 0 0 0 0.174664,0.122473 30.975612,30.975612 0 0 0 0.168465,0.116788 30.975612,30.975612 0 0 0 0.04444,0.02997 30.975612,30.975612 0 0 0 0.03462,0.02377 30.975612,30.975612 0 0 0 0.149862,0.101801 30.975612,30.975612 0 0 0 0.02274,0.01499 30.975612,30.975612 0 0 0 0.177252,0.118341 30.975612,30.975612 0 0 0 0.201539,0.132291 30.975612,30.975612 0 0 0 0.02273,0.01499 30.975612,30.975612 0 0 0 0.179319,0.11524 30.975612,30.975612 0 0 0 0.09922,0.06304 30.975612,30.975612 0 0 0 0.125055,0.07958 30.975612,30.975612 0 0 0 0.0021,0.001 30.975612,30.975612 0 0 0 0.181382,0.112655 30.975612,30.975612 0 0 0 0.09354,0.05736 30.975612,30.975612 0 0 0 0.11162,0.06873 30.975612,30.975612 0 0 0 0.02325,0.01395 30.975612,30.975612 0 0 0 0.182936,0.110072 30.975612,30.975612 0 0 0 0.02377,0.01395 30.975612,30.975612 0 0 0 0.192754,0.113686 30.975612,30.975612 0 0 0 0.01447,0.0088 30.975612,30.975612 0 0 0 0.184483,0.106968 30.975612,30.975612 0 0 0 0.11679,0.06667 30.975612,30.975612 0 0 0 0.09198,0.05271 30.975612,30.975612 0 0 0 0.02429,0.01344 30.975612,30.975612 0 0 0 0.186037,0.104386 30.975612,30.975612 0 0 0 0.02377,0.01344 30.975612,30.975612 0 0 0 0.187068,0.10232 30.975612,30.975612 0 0 0 0.174149,0.09457 30.975612,30.975612 0 0 0 0.05685,0.03049 30.975612,30.975612 0 0 0 0.0052,0.0026 30.975612,30.975612 0 0 0 0.03566,0.01912 30.975612,30.975612 0 0 0 7.969022,-18.009748 z" />
      <path
         id="path1102"
         style="mix-blend-mode:normal;fill:#fff4f2;fill-opacity:1;stroke:none;stroke-width:1.45199;stroke-linecap:round;stroke-linejoin:bevel"
         d="m 54.942903,-102.41649 a 30.975612,30.975612 0 0 0 -0.14986,0.16537 30.975612,30.975612 0 0 0 -0.01757,0.0196 30.975612,30.975612 0 0 0 -0.03152,0.0346 30.975612,30.975612 0 0 0 -0.122989,0.13849 30.975612,30.975612 0 0 0 -0.316262,0.36277 30.975612,30.975612 0 0 0 -0.156062,0.18345 30.975612,30.975612 0 0 0 -0.146761,0.1757 30.975612,30.975612 0 0 0 -0.01499,0.0181 30.975612,30.975612 0 0 0 -0.05633,0.0677 30.975612,30.975612 0 0 0 -0.12454,0.15142 30.975612,30.975612 0 0 0 -5.16e-4,5.1e-4 30.975612,30.975612 0 0 0 -0.116274,0.14366 30.975612,30.975612 0 0 0 -0.03514,0.0434 30.975612,30.975612 0 0 0 -0.115239,0.1447 30.975612,30.975612 0 0 0 -0.109553,0.13901 30.975612,30.975612 0 0 0 -0.05891,0.0754 30.975612,30.975612 0 0 0 -0.01447,0.0186 30.975612,30.975612 0 0 0 -0.113173,0.14676 30.975612,30.975612 0 0 0 -0.134358,0.17621 30.975612,30.975612 0 0 0 -0.01705,0.0227 30.975612,30.975612 0 0 0 -0.02791,0.0367 30.975612,30.975612 0 0 0 -0.110588,0.14831 30.975612,30.975612 0 0 0 -0.138493,0.187588 30.975612,30.975612 0 0 0 -0.0057,0.0078 30.975612,30.975612 0 0 0 -0.140044,0.19327 30.975612,30.975612 0 0 0 -0.140044,0.196368 30.975612,30.975612 0 0 0 -0.137974,0.196887 30.975612,30.975612 0 0 0 -0.121959,0.175702 30.975612,30.975612 0 0 0 -0.02274,0.03307 30.975612,30.975612 0 0 0 -0.103351,0.152961 30.975612,30.975612 0 0 0 -0.03101,0.04548 30.975612,30.975612 0 0 0 -0.02429,0.03617 30.975612,30.975612 0 0 0 -0.102317,0.153996 30.975612,30.975612 0 0 0 -0.132291,0.201538 30.975612,30.975612 0 0 0 -0.130226,0.202055 30.975612,30.975612 0 0 0 -0.117821,0.185517 30.975612,30.975612 0 0 0 -0.01551,0.02429 30.975612,30.975612 0 0 0 -0.122989,0.197919 30.975612,30.975612 0 0 0 -0.112654,0.183452 30.975612,30.975612 0 0 0 -0.01912,0.03152 30.975612,30.975612 0 0 0 -0.02326,0.03772 30.975612,30.975612 0 0 0 -0.09508,0.158647 30.975612,30.975612 0 0 0 -0.122473,0.207222 30.975612,30.975612 0 0 0 -0.120925,0.208256 30.975612,30.975612 0 0 0 -0.119372,0.208775 30.975612,30.975612 0 0 0 -0.117822,0.210322 30.975612,30.975612 0 0 0 -0.115755,0.210839 30.975612,30.975612 0 0 0 -0.108521,0.200504 30.975612,30.975612 0 0 0 -0.0093,0.01705 30.975612,30.975612 0 0 0 -0.02325,0.04341 30.975612,30.975612 0 0 0 -0.0052,0.01085 30.975612,30.975612 0 0 0 18.009239,7.968503 30.975612,30.975612 0 0 0 -13.539744,-14.300941 z" />
      <path
         id="path1107"
         style="mix-blend-mode:normal;fill:#bae9f9;fill-opacity:1;stroke:none;stroke-width:1.45199;stroke-linecap:round;stroke-linejoin:bevel"
         d="m 54.942903,-102.41649 a 30.975612,30.975612 0 0 0 -7.969022,18.00924 30.975612,30.975612 0 0 0 14.300935,-13.539226 30.975612,30.975612 0 0 0 0,-5.16e-4 30.975612,30.975612 0 0 0 -0.02015,-0.01809 30.975612,30.975612 0 0 0 -0.158128,-0.143661 30.975612,30.975612 0 0 0 -0.02016,-0.01809 30.975612,30.975612 0 0 0 -0.159679,-0.14211 30.975612,30.975612 0 0 0 -0.02015,-0.01757 30.975612,30.975612 0 0 0 -0.160716,-0.141079 30.975612,30.975612 0 0 0 -0.02015,-0.01757 30.975612,30.975612 0 0 0 -0.161748,-0.140044 30.975612,30.975612 0 0 0 -0.02067,-0.01757 30.975612,30.975612 0 0 0 -0.16278,-0.138491 30.975612,30.975612 0 0 0 -0.02067,-0.01705 30.975612,30.975612 0 0 0 -0.163814,-0.137459 30.975612,30.975612 0 0 0 -0.02067,-0.01705 30.975612,30.975612 0 0 0 -0.165364,-0.135909 30.975612,30.975612 0 0 0 -0.02067,-0.01705 30.975612,30.975612 0 0 0 -0.16588,-0.134874 30.975612,30.975612 0 0 0 -0.02119,-0.01705 30.975612,30.975612 0 0 0 -0.166915,-0.133326 30.975612,30.975612 0 0 0 -0.02119,-0.01654 30.975612,30.975612 0 0 0 -0.189653,-0.148828 30.975612,30.975612 0 0 0 -0.168982,-0.130741 30.975612,30.975612 0 0 0 -0.02119,-0.01602 30.975612,30.975612 0 0 0 -0.170532,-0.129706 30.975612,30.975612 0 0 0 -0.02119,-0.01602 30.975612,30.975612 0 0 0 -0.171048,-0.128156 30.975612,30.975612 0 0 0 -0.0217,-0.01602 30.975612,30.975612 0 0 0 -0.366902,-0.268204 30.975612,30.975612 0 0 0 -0.02222,-0.016 30.975612,30.975612 0 0 0 -0.174151,-0.12402 30.975612,30.975612 0 0 0 -0.0217,-0.0155 30.975612,30.975612 0 0 0 -0.175183,-0.12247 30.975612,30.975612 0 0 0 -0.02222,-0.0155 30.975612,30.975612 0 0 0 -0.02894,-0.0202 30.975612,30.975612 0 0 0 -0.169497,-0.11627 30.975612,30.975612 0 0 0 -0.0894,-0.0605 30.975612,30.975612 0 0 0 -0.08733,-0.0594 30.975612,30.975612 0 0 0 -0.168982,-0.11317 30.975612,30.975612 0 0 0 -0.03101,-0.0207 30.975612,30.975612 0 0 0 -0.02274,-0.015 30.975612,30.975612 0 0 0 -0.1788,-0.1173 30.975612,30.975612 0 0 0 -0.02274,-0.0145 30.975612,30.975612 0 0 0 -0.179316,-0.11576 30.975612,30.975612 0 0 0 -0.02274,-0.0145 30.975612,30.975612 0 0 0 -0.180866,-0.11472 30.975612,30.975612 0 0 0 -0.02274,-0.0139 30.975612,30.975612 0 0 0 -0.08217,-0.0512 30.975612,30.975612 0 0 0 -0.09922,-0.062 30.975612,30.975612 0 0 0 -0.205155,-0.12557 30.975612,30.975612 0 0 0 -0.107487,-0.0651 30.975612,30.975612 0 0 0 -0.121954,-0.0729 30.975612,30.975612 0 0 0 -0.183971,-0.10904 30.975612,30.975612 0 0 0 -0.02325,-0.0134 30.975612,30.975612 0 0 0 -0.185002,-0.10748 30.975612,30.975612 0 0 0 -0.02325,-0.0134 30.975612,30.975612 0 0 0 -0.186034,-0.10593 30.975612,30.975612 0 0 0 -0.02325,-0.0134 30.975612,30.975612 0 0 0 -0.186552,-0.10439 30.975612,30.975612 0 0 0 -0.02377,-0.0129 30.975612,30.975612 0 0 0 -0.187069,-0.10283 30.975612,30.975612 0 0 0 -0.02377,-0.0129 30.975612,30.975612 0 0 0 -0.01964,-0.0103 30.975612,30.975612 0 0 0 -0.192236,-0.10387 30.975612,30.975612 0 0 0 -0.0248,-0.0134 30.975612,30.975612 0 0 0 -0.01085,-0.006 z" />
      <path
         id="path1112"
         style="mix-blend-mode:normal;fill:#fff4f9;fill-opacity:1;stroke:none;stroke-width:1.45199;stroke-linecap:round;stroke-linejoin:bevel"
         d="m 54.942903,-102.41649 a 30.975612,30.975612 0 0 0 -0.0047,0.005 30.975612,30.975612 0 0 0 -0.145209,0.16072 30.975612,30.975612 0 0 0 -0.01188,0.0129 30.975612,30.975612 0 0 0 -0.0057,0.007 30.975612,30.975612 0 0 0 -0.01395,0.0155 30.975612,30.975612 0 0 0 -0.01757,0.0191 30.975612,30.975612 0 0 0 -0.439251,0.50126 30.975612,30.975612 0 0 0 -0.0046,0.005 30.975612,30.975612 0 0 0 -0.151413,0.17828 30.975612,30.975612 0 0 0 -0.146761,0.1757 30.975612,30.975612 0 0 0 -0.0078,0.009 30.975612,30.975612 0 0 0 -0.0072,0.009 30.975612,30.975612 0 0 0 -0.04806,0.0574 30.975612,30.975612 0 0 0 -0.0083,0.0103 30.975612,30.975612 0 0 0 -0.03152,0.0382 30.975612,30.975612 0 0 0 -0.06873,0.0837 30.975612,30.975612 0 0 0 -0.02429,0.0295 30.975612,30.975612 0 0 0 -5.16e-4,5.1e-4 30.975612,30.975612 0 0 0 -0.116274,0.14366 30.975612,30.975612 0 0 0 -0.0041,0.005 30.975612,30.975612 0 0 0 -0.03101,0.0382 30.975612,30.975612 0 0 0 -0.115239,0.1447 30.975612,30.975612 0 0 0 -0.04392,0.0558 30.975612,30.975612 0 0 0 -0.06563,0.0832 30.975612,30.975612 0 0 0 -0.0217,0.0279 30.975612,30.975612 0 0 0 -0.01757,0.0222 30.975612,30.975612 0 0 0 -0.0041,0.005 30.975612,30.975612 0 0 0 -0.0083,0.0109 30.975612,30.975612 0 0 0 -0.0072,0.009 30.975612,30.975612 0 0 0 -0.0093,0.0119 30.975612,30.975612 0 0 0 -0.0052,0.007 30.975612,30.975612 0 0 0 -0.02377,0.0305 30.975612,30.975612 0 0 0 -0.0894,0.11628 30.975612,30.975612 0 0 0 -0.0041,0.005 30.975612,30.975612 0 0 0 -0.130225,0.17104 30.975612,30.975612 0 0 0 -0.0031,0.004 30.975612,30.975612 0 0 0 -0.0083,0.0109 30.975612,30.975612 0 0 0 -0.0041,0.005 30.975612,30.975612 0 0 0 -0.0016,0.003 30.975612,30.975612 0 0 0 -0.0067,0.009 30.975612,30.975612 0 0 0 -0.01602,0.0207 30.975612,30.975612 0 0 0 -0.0052,0.007 30.975612,30.975612 0 0 0 -0.110588,0.14831 30.975612,30.975612 0 0 0 -0.0041,0.0052 30.975612,30.975612 0 0 0 -0.134358,0.182417 30.975612,30.975612 0 0 0 -0.0047,0.0062 30.975612,30.975612 0 0 0 -10e-4,0.0016 30.975612,30.975612 0 0 0 -0.140044,0.19327 30.975612,30.975612 0 0 0 -0.139525,0.195852 30.975612,30.975612 0 0 0 -0.138493,0.197403 30.975612,30.975612 0 0 0 -0.121958,0.175702 30.975612,30.975612 0 0 0 -0.01499,0.02222 30.975612,30.975612 0 0 0 -0.0057,0.0078 30.975612,30.975612 0 0 0 -0.0021,0.0031 30.975612,30.975612 0 0 0 -0.103351,0.152961 30.975612,30.975612 0 0 0 -0.157613,0.235646 30.975612,30.975612 0 0 0 -0.104388,0.158647 30.975612,30.975612 0 0 0 -0.0279,0.04237 30.975612,30.975612 0 0 0 0,5.18e-4 30.975612,30.975612 0 0 0 -0.0036,0.0052 30.975612,30.975612 0 0 0 -0.126606,0.196887 30.975612,30.975612 0 0 0 -0.117821,0.185517 30.975612,30.975612 0 0 0 -0.01137,0.01809 30.975612,30.975612 0 0 0 -0.0036,0.0052 30.975612,30.975612 0 0 0 -5.19e-4,0.001 30.975612,30.975612 0 0 0 -0.122989,0.197919 30.975612,30.975612 0 0 0 -0.112654,0.183452 30.975612,30.975612 0 0 0 -0.01344,0.0217 30.975612,30.975612 0 0 0 -0.0036,0.0057 30.975612,30.975612 0 0 0 -0.0021,0.0041 30.975612,30.975612 0 0 0 -0.0093,0.01499 30.975612,30.975612 0 0 0 -0.0067,0.01085 30.975612,30.975612 0 0 0 -0.0072,0.01189 30.975612,30.975612 0 0 0 -0.09508,0.158647 30.975612,30.975612 0 0 0 -0.0036,0.0057 30.975612,30.975612 0 0 0 -0.118854,0.201539 30.975612,30.975612 0 0 0 -0.0036,0.0057 30.975612,30.975612 0 0 0 -0.117306,0.20257 30.975612,30.975612 0 0 0 -0.0036,0.0057 30.975612,30.975612 0 0 0 -0.115755,0.203089 30.975612,30.975612 0 0 0 -0.117822,0.209804 30.975612,30.975612 0 0 0 -0.115755,0.211357 30.975612,30.975612 0 0 0 -0.108521,0.200504 30.975612,30.975612 0 0 0 -0.0062,0.01137 30.975612,30.975612 0 0 0 -0.0031,0.0057 30.975612,30.975612 0 0 0 -0.02325,0.04341 30.975612,30.975612 0 0 0 -0.0052,0.01085 30.975612,30.975612 0 0 0 0.0047,0.0041 30.975612,30.975612 0 0 0 0.07286,0.06615 30.975612,30.975612 0 0 0 0.0072,0.0067 30.975612,30.975612 0 0 0 0.113686,0.10232 30.975612,30.975612 0 0 0 0.159165,0.14211 30.975612,30.975612 0 0 0 5.16e-4,5.16e-4 30.975612,30.975612 0 0 0 5.16e-4,5.19e-4 30.975612,30.975612 0 0 0 0.0041,0.0036 30.975612,30.975612 0 0 0 0.0155,0.01344 30.975612,30.975612 0 0 0 0.160714,0.141076 30.975612,30.975612 0 0 0 0.0036,0.0031 30.975612,30.975612 0 0 0 10e-4,10e-4 30.975612,30.975612 0 0 0 0.0031,0.0026 30.975612,30.975612 0 0 0 0.01188,0.01034 30.975612,30.975612 0 0 0 5.19e-4,5.16e-4 30.975612,30.975612 0 0 0 0.161229,0.139525 30.975612,30.975612 0 0 0 5.16e-4,5.19e-4 30.975612,30.975612 0 0 0 0.0047,0.0041 30.975612,30.975612 0 0 0 0.178284,0.151414 30.975612,30.975612 0 0 0 5.16e-4,5.16e-4 30.975612,30.975612 0 0 0 0.0047,0.0041 30.975612,30.975612 0 0 0 0.125573,0.104905 30.975612,30.975612 0 0 0 0.05426,0.04547 30.975612,30.975612 0 0 0 0.0047,0.0041 30.975612,30.975612 0 0 0 0.0067,0.0052 30.975612,30.975612 0 0 0 0.0041,0.0036 30.975612,30.975612 0 0 0 0.0052,0.0041 30.975612,30.975612 0 0 0 0.150379,0.124023 30.975612,30.975612 0 0 0 0.01395,0.01137 30.975612,30.975612 0 0 0 0.001,5.15e-4 30.975612,30.975612 0 0 0 0.100769,0.08217 30.975612,30.975612 0 0 0 0.05064,0.04134 30.975612,30.975612 0 0 0 0.01602,0.01292 30.975612,30.975612 0 0 0 0.01912,0.0155 30.975612,30.975612 0 0 0 0.0021,0.0016 30.975612,30.975612 0 0 0 0.0031,0.0026 30.975612,30.975612 0 0 0 0.0041,0.0031 30.975612,30.975612 0 0 0 0.06408,0.05116 30.975612,30.975612 0 0 0 0.02015,0.01602 30.975612,30.975612 0 0 0 0.09405,0.07545 30.975612,30.975612 0 0 0 0.0057,0.0041 30.975612,30.975612 0 0 0 0.01602,0.01292 30.975612,30.975612 0 0 0 0.114721,0.08992 30.975612,30.975612 0 0 0 0.0584,0.04599 30.975612,30.975612 0 0 0 0.01602,0.0124 30.975612,30.975612 0 0 0 0.168981,0.130741 30.975612,30.975612 0 0 0 5.19e-4,5.19e-4 30.975612,30.975612 0 0 0 0.0046,0.0036 30.975612,30.975612 0 0 0 0.01654,0.0124 30.975612,30.975612 0 0 0 0.04082,0.03101 30.975612,30.975612 0 0 0 0.06511,0.04961 30.975612,30.975612 0 0 0 0.06356,0.04858 30.975612,30.975612 0 0 0 0.001,5.16e-4 30.975612,30.975612 0 0 0 0.0046,0.0036 30.975612,30.975612 0 0 0 0.01654,0.0124 30.975612,30.975612 0 0 0 0.04496,0.03359 30.975612,30.975612 0 0 0 0.12609,0.09457 30.975612,30.975612 0 0 0 0.0088,0.0062 30.975612,30.975612 0 0 0 0.04134,0.03101 30.975612,30.975612 0 0 0 0.01757,0.01292 30.975612,30.975612 0 0 0 0.0093,0.0067 30.975612,30.975612 0 0 0 0.116273,0.08578 30.975612,30.975612 0 0 0 5.16e-4,5.19e-4 30.975612,30.975612 0 0 0 0.0052,0.0036 30.975612,30.975612 0 0 0 0.01654,0.01189 30.975612,30.975612 0 0 0 0.173633,0.125574 30.975612,30.975612 0 0 0 0.0047,0.0036 30.975612,30.975612 0 0 0 10e-4,5.16e-4 30.975612,30.975612 0 0 0 0.08113,0.05788 30.975612,30.975612 0 0 0 0.108519,0.07752 30.975612,30.975612 0 0 0 5.18e-4,5.18e-4 30.975612,30.975612 0 0 0 0.0046,0.0036 30.975612,30.975612 0 0 0 0.01705,0.01137 30.975612,30.975612 0 0 0 0.174665,0.122473 30.975612,30.975612 0 0 0 5.18e-4,5.16e-4 30.975612,30.975612 0 0 0 0.03876,0.02687 30.975612,30.975612 0 0 0 0.07907,0.05478 30.975612,30.975612 0 0 0 0.05012,0.03462 30.975612,30.975612 0 0 0 0.0088,0.0062 30.975612,30.975612 0 0 0 0.03565,0.02377 30.975612,30.975612 0 0 0 0.03462,0.02377 30.975612,30.975612 0 0 0 0.03876,0.02636 30.975612,30.975612 0 0 0 0.03307,0.02274 30.975612,30.975612 0 0 0 0.07803,0.05271 30.975612,30.975612 0 0 0 0.0057,0.0036 30.975612,30.975612 0 0 0 0.01705,0.01137 30.975612,30.975612 0 0 0 0.177252,0.118341 30.975612,30.975612 0 0 0 5.16e-4,5.16e-4 30.975612,30.975612 0 0 0 0.02739,0.01809 30.975612,30.975612 0 0 0 0.173636,0.113689 30.975612,30.975612 0 0 0 0.0057,0.0036 30.975612,30.975612 0 0 0 0.15503,0.100253 30.975612,30.975612 0 0 0 0.04134,0.02636 30.975612,30.975612 0 0 0 5.16e-4,5.15e-4 30.975612,30.975612 0 0 0 0.0052,0.0036 30.975612,30.975612 0 0 0 0.09354,0.05891 30.975612,30.975612 0 0 0 0.03255,0.02119 30.975612,30.975612 0 0 0 0.07235,0.04547 30.975612,30.975612 0 0 0 0.0052,0.0031 30.975612,30.975612 0 0 0 0.01705,0.01085 30.975612,30.975612 0 0 0 0.06666,0.04134 30.975612,30.975612 0 0 0 0.11472,0.07131 30.975612,30.975612 0 0 0 5.19e-4,5.16e-4 30.975612,30.975612 0 0 0 0.09302,0.05684 30.975612,30.975612 0 0 0 0.02481,0.0155 30.975612,30.975612 0 0 0 0.08682,0.05323 30.975612,30.975612 0 0 0 5.18e-4,0 30.975612,30.975612 0 0 0 0.02274,0.01395 30.975612,30.975612 0 0 0 0.182936,0.110072 30.975612,30.975612 0 0 0 0.0057,0.0036 30.975612,30.975612 0 0 0 0.01809,0.01034 30.975612,30.975612 0 0 0 0.192754,0.113686 30.975612,30.975612 0 0 0 0.01447,0.0088 30.975612,30.975612 0 0 0 0.184483,0.106968 30.975612,30.975612 0 0 0 5.19e-4,5.19e-4 30.975612,30.975612 0 0 0 0.0052,0.0031 30.975612,30.975612 0 0 0 0.111104,0.06305 30.975612,30.975612 0 0 0 0.05788,0.03307 30.975612,30.975612 0 0 0 0.0067,0.0041 30.975612,30.975612 0 0 0 0.02739,0.0155 30.975612,30.975612 0 0 0 10e-4,5.19e-4 30.975612,30.975612 0 0 0 0.0052,0.0031 30.975612,30.975612 0 0 0 0.01809,0.0098 30.975612,30.975612 0 0 0 0.04134,0.02325 30.975612,30.975612 0 0 0 0.144696,0.08113 30.975612,30.975612 0 0 0 0.159678,0.08785 30.975612,30.975612 0 0 0 0.05116,0.02791 30.975612,30.975612 0 0 0 5.19e-4,5.16e-4 30.975612,30.975612 0 0 0 0.0052,0.0031 30.975612,30.975612 0 0 0 0.05374,0.02894 30.975612,30.975612 0 0 0 0.212392,0.113689 30.975612,30.975612 0 0 0 0.01808,-0.01964 30.975612,30.975612 0 0 0 0.161232,-0.1788 30.975612,30.975612 0 0 0 0.318844,-0.360702 30.975612,30.975612 0 0 0 0.04806,-0.05529 30.975612,30.975612 0 0 0 0.09198,-0.105939 30.975612,30.975612 0 0 0 0.0046,-0.0057 30.975612,30.975612 0 0 0 0.01292,-0.01499 30.975612,30.975612 0 0 0 0.155546,-0.183451 30.975612,30.975612 0 0 0 0.141595,-0.169497 30.975612,30.975612 0 0 0 0.01292,-0.0155 30.975612,30.975612 0 0 0 0.01344,-0.01654 30.975612,30.975612 0 0 0 0.125055,-0.15141 30.975612,30.975612 0 0 0 0.01189,-0.01447 30.975612,30.975612 0 0 0 0.0026,-0.0036 30.975612,30.975612 0 0 0 0.13901,-0.17105 30.975612,30.975612 0 0 0 0.0124,-0.0155 30.975612,30.975612 0 0 0 0.14986,-0.188103 30.975612,30.975612 0 0 0 0.280088,-0.358635 30.975612,30.975612 0 0 0 0.0041,-0.0057 30.975612,30.975612 0 0 0 0.01188,-0.0155 30.975612,30.975612 0 0 0 0.133842,-0.176215 30.975612,30.975612 0 0 0 0.01189,-0.0155 30.975612,30.975612 0 0 0 0.128156,-0.171047 30.975612,30.975612 0 0 0 0.0041,-0.0057 30.975612,30.975612 0 0 0 0.01188,-0.01602 30.975612,30.975612 0 0 0 0,-5.16e-4 30.975612,30.975612 0 0 0 0.09508,-0.129191 30.975612,30.975612 0 0 0 0.04754,-0.0646 30.975612,30.975612 0 0 0 0.03307,-0.04547 30.975612,30.975612 0 0 0 0.09663,-0.133326 30.975612,30.975612 0 0 0 0.01137,-0.01602 30.975612,30.975612 0 0 0 0.128159,-0.179834 30.975612,30.975612 0 0 0 0.01137,-0.01602 30.975612,30.975612 0 0 0 0.08682,-0.123505 30.975612,30.975612 0 0 0 0.04031,-0.05736 30.975612,30.975612 0 0 0 0.01137,-0.01654 30.975612,30.975612 0 0 0 0.02016,-0.02894 30.975612,30.975612 0 0 0 0.104902,-0.152961 30.975612,30.975612 0 0 0 0.08992,-0.132292 30.975612,30.975612 0 0 0 0.04393,-0.06511 30.975612,30.975612 0 0 0 0.0016,-0.0016 30.975612,30.975612 0 0 0 0.03101,-0.04599 30.975612,30.975612 0 0 0 0.02015,-0.03049 30.975612,30.975612 0 0 0 0.210839,-0.31936 30.975612,30.975612 0 0 0 0.0036,-0.0057 30.975612,30.975612 0 0 0 0.01085,-0.01705 30.975612,30.975612 0 0 0 0.119372,-0.185518 30.975612,30.975612 0 0 0 0.01085,-0.01705 30.975612,30.975612 0 0 0 0.245462,-0.390673 30.975612,30.975612 0 0 0 0.01033,-0.01705 30.975612,30.975612 0 0 0 0.11524,-0.188101 30.975612,30.975612 0 0 0 0.01033,-0.01705 30.975612,30.975612 0 0 0 0.0031,-0.0052 30.975612,30.975612 0 0 0 0.243398,-0.40876 30.975612,30.975612 0 0 0 0.107485,-0.184486 30.975612,30.975612 0 0 0 0.0036,-0.0062 30.975612,30.975612 0 0 0 0.0098,-0.01757 30.975612,30.975612 0 0 0 0.105936,-0.185518 30.975612,30.975612 0 0 0 0.0036,-0.0062 30.975612,30.975612 0 0 0 0.0098,-0.01757 30.975612,30.975612 0 0 0 0.02067,-0.03721 30.975612,30.975612 0 0 0 0.02222,-0.03927 30.975612,30.975612 0 0 0 0.06149,-0.109554 30.975612,30.975612 0 0 0 0.0031,-0.0062 30.975612,30.975612 0 0 0 0.0098,-0.01757 30.975612,30.975612 0 0 0 0.05839,-0.106455 30.975612,30.975612 0 0 0 0.04806,-0.08682 30.975612,30.975612 0 0 0 0.0093,-0.01757 30.975612,30.975612 0 0 0 0.0067,-0.01292 30.975612,30.975612 0 0 0 0.04134,-0.07596 30.975612,30.975612 0 0 0 0.08526,-0.158647 30.975612,30.975612 0 0 0 0,-5.16e-4 30.975612,30.975612 0 0 0 -0.0052,-0.0047 30.975612,30.975612 0 0 0 -0.01499,-0.01344 30.975612,30.975612 0 0 0 -0.01033,-0.0098 30.975612,30.975612 0 0 0 -0.01757,-0.01602 30.975612,30.975612 0 0 0 -0.05013,-0.04496 30.975612,30.975612 0 0 0 -0.08527,-0.077 30.975612,30.975612 0 0 0 -0.174665,-0.156065 30.975612,30.975612 0 0 0 -0.0052,-0.0041 30.975612,30.975612 0 0 0 -0.01499,-0.01344 30.975612,30.975612 0 0 0 -0.160716,-0.141079 30.975612,30.975612 0 0 0 -0.0052,-0.0046 30.975612,30.975612 0 0 0 -0.01499,-0.01292 30.975612,30.975612 0 0 0 -0.01085,-0.0093 30.975612,30.975612 0 0 0 -0.150897,-0.130741 30.975612,30.975612 0 0 0 -0.0052,-0.0041 30.975612,30.975612 0 0 0 -0.0155,-0.01344 30.975612,30.975612 0 0 0 -0.16278,-0.138491 30.975612,30.975612 0 0 0 -0.0052,-0.0041 30.975612,30.975612 0 0 0 -0.01033,-0.0088 30.975612,30.975612 0 0 0 -0.0052,-0.0041 30.975612,30.975612 0 0 0 -0.04134,-0.03462 30.975612,30.975612 0 0 0 -0.122473,-0.102838 30.975612,30.975612 0 0 0 -0.0052,-0.0041 30.975612,30.975612 0 0 0 -0.01447,-0.01188 30.975612,30.975612 0 0 0 -10e-4,-10e-4 30.975612,30.975612 0 0 0 -0.164846,-0.135909 30.975612,30.975612 0 0 0 -5.18e-4,0 30.975612,30.975612 0 0 0 -0.0046,-0.0041 30.975612,30.975612 0 0 0 -5.19e-4,-5.16e-4 30.975612,30.975612 0 0 0 -0.0155,-0.0124 30.975612,30.975612 0 0 0 -0.124539,-0.101285 30.975612,30.975612 0 0 0 -0.04134,-0.03359 30.975612,30.975612 0 0 0 -0.0052,-0.0041 30.975612,30.975612 0 0 0 -0.01602,-0.01292 30.975612,30.975612 0 0 0 -0.166915,-0.133326 30.975612,30.975612 0 0 0 -0.0052,-0.0041 30.975612,30.975612 0 0 0 -0.01602,-0.0124 30.975612,30.975612 0 0 0 -0.07906,-0.06201 30.975612,30.975612 0 0 0 -0.08888,-0.07028 30.975612,30.975612 0 0 0 -0.0057,-0.0041 30.975612,30.975612 0 0 0 -0.0093,-0.0072 30.975612,30.975612 0 0 0 -0.0067,-0.0052 30.975612,30.975612 0 0 0 -0.168982,-0.130741 30.975612,30.975612 0 0 0 -0.0052,-0.0041 30.975612,30.975612 0 0 0 -0.01602,-0.01189 30.975612,30.975612 0 0 0 -0.170014,-0.129706 30.975612,30.975612 0 0 0 -5.18e-4,0 30.975612,30.975612 0 0 0 -0.0052,-0.0041 30.975612,30.975612 0 0 0 -0.01602,-0.01188 30.975612,30.975612 0 0 0 -0.05839,-0.04392 30.975612,30.975612 0 0 0 -0.0186,-0.01395 30.975612,30.975612 0 0 0 -0.09405,-0.07028 30.975612,30.975612 0 0 0 -0.0057,-0.0041 30.975612,30.975612 0 0 0 -0.01602,-0.01188 30.975612,30.975612 0 0 0 -0.177768,-0.130737 30.975612,30.975612 0 0 0 -0.01602,-0.0119 30.975612,30.975612 0 0 0 -0.173117,-0.12557 30.975612,30.975612 0 0 0 -0.0057,-0.004 30.975612,30.975612 0 0 0 -0.01654,-0.0119 30.975612,30.975612 0 0 0 -0.174151,-0.12402 30.975612,30.975612 0 0 0 -0.0052,-0.004 30.975612,30.975612 0 0 0 -0.01654,-0.0119 30.975612,30.975612 0 0 0 -0.175183,-0.12247 30.975612,30.975612 0 0 0 -0.0057,-0.004 30.975612,30.975612 0 0 0 -0.01654,-0.0114 30.975612,30.975612 0 0 0 -0.0041,-0.003 30.975612,30.975612 0 0 0 -0.02481,-0.017 30.975612,30.975612 0 0 0 -0.146762,-0.10128 30.975612,30.975612 0 0 0 -0.0057,-0.004 30.975612,30.975612 0 0 0 -0.01705,-0.0114 30.975612,30.975612 0 0 0 -0.0894,-0.0605 30.975612,30.975612 0 0 0 -0.08733,-0.0594 30.975612,30.975612 0 0 0 -0.0057,-0.004 30.975612,30.975612 0 0 0 -0.163295,-0.10904 30.975612,30.975612 0 0 0 -0.03101,-0.0207 30.975612,30.975612 0 0 0 -0.0057,-0.004 30.975612,30.975612 0 0 0 -0.01137,-0.007 30.975612,30.975612 0 0 0 -0.0057,-0.004 30.975612,30.975612 0 0 0 -0.1788,-0.1173 30.975612,30.975612 0 0 0 -0.0057,-0.004 30.975612,30.975612 0 0 0 -0.01706,-0.0109 30.975612,30.975612 0 0 0 -0.112135,-0.0724 30.975612,30.975612 0 0 0 -0.02222,-0.0145 30.975612,30.975612 0 0 0 -0.04496,-0.0289 30.975612,30.975612 0 0 0 -0.0057,-0.004 30.975612,30.975612 0 0 0 -0.01705,-0.0108 30.975612,30.975612 0 0 0 -0.180866,-0.11472 30.975612,30.975612 0 0 0 -0.0057,-0.004 30.975612,30.975612 0 0 0 -0.01705,-0.0103 30.975612,30.975612 0 0 0 -0.08217,-0.0512 30.975612,30.975612 0 0 0 -0.09922,-0.062 30.975612,30.975612 0 0 0 -0.0057,-0.004 30.975612,30.975612 0 0 0 -0.03876,-0.0238 30.975612,30.975612 0 0 0 -0.160713,-0.0982 30.975612,30.975612 0 0 0 -0.0057,-0.004 30.975612,30.975612 0 0 0 -0.101804,-0.0615 30.975612,30.975612 0 0 0 -0.0987,-0.0594 30.975612,30.975612 0 0 0 -0.0057,-0.003 30.975612,30.975612 0 0 0 -0.01757,-0.0103 30.975612,30.975612 0 0 0 -0.02946,-0.0176 30.975612,30.975612 0 0 0 -0.154514,-0.0915 30.975612,30.975612 0 0 0 -0.0057,-0.003 30.975612,30.975612 0 0 0 -0.01757,-0.0103 30.975612,30.975612 0 0 0 -0.185002,-0.10748 30.975612,30.975612 0 0 0 -0.0057,-0.003 30.975612,30.975612 0 0 0 -0.0093,-0.005 30.975612,30.975612 0 0 0 -0.0083,-0.005 30.975612,30.975612 0 0 0 -0.185518,-0.10593 30.975612,30.975612 0 0 0 -5.16e-4,0 30.975612,30.975612 0 0 0 -0.0057,-0.003 30.975612,30.975612 0 0 0 -0.20412,-0.11472 30.975612,30.975612 0 0 0 -0.0057,-0.003 30.975612,30.975612 0 0 0 -0.01809,-0.01 30.975612,30.975612 0 0 0 -0.158128,-0.0868 30.975612,30.975612 0 0 0 -0.02894,-0.016 30.975612,30.975612 0 0 0 -0.0057,-0.003 30.975612,30.975612 0 0 0 -0.01809,-0.01 30.975612,30.975612 0 0 0 -0.01964,-0.0103 30.975612,30.975612 0 0 0 -0.192236,-0.10387 30.975612,30.975612 0 0 0 -0.01033,-0.006 30.975612,30.975612 0 0 0 -0.01034,-0.006 30.975612,30.975612 0 0 0 -0.0041,-0.002 30.975612,30.975612 0 0 0 -0.01085,-0.006 z" />
    </g>
  </g>
</svg>
