<?xml version="1.0" encoding="UTF-8" standalone="no"?>
<svg
   data-name="Layer 1"
   width="1097.1"
   height="807.91699"
   viewBox="0 0 1097.1 807.91703"
   version="1.1"
   id="svg403"
   sodipodi:docname="gridscore-next-pwa.svg"
   inkscape:version="1.2.2 (732a01da63, 2022-12-09)"
   xmlns:inkscape="http://www.inkscape.org/namespaces/inkscape"
   xmlns:sodipodi="http://sodipodi.sourceforge.net/DTD/sodipodi-0.dtd"
   xmlns="http://www.w3.org/2000/svg"
   xmlns:svg="http://www.w3.org/2000/svg"
   xmlns:rdf="http://www.w3.org/1999/02/22-rdf-syntax-ns#"
   xmlns:cc="http://creativecommons.org/ns#"
   xmlns:dc="http://purl.org/dc/elements/1.1/">
  <defs
     id="defs407" />
  <sodipodi:namedview
     id="namedview405"
     pagecolor="#ffffff"
     bordercolor="#666666"
     borderopacity="1.0"
     inkscape:showpageshadow="2"
     inkscape:pageopacity="0.0"
     inkscape:pagecheckerboard="0"
     inkscape:deskcolor="#d1d1d1"
     showgrid="false"
     inkscape:zoom="1.0788548"
     inkscape:cx="455.11221"
     inkscape:cy="327.1988"
     inkscape:window-width="2560"
     inkscape:window-height="1377"
     inkscape:window-x="1912"
     inkscape:window-y="-8"
     inkscape:window-maximized="1"
     inkscape:current-layer="svg403" />
  <title
     id="title319">progressive_app</title>
  <circle
     cx="237.7112"
     cy="591.2688"
     r="57.055416"
     fill="#f2f2f2"
     id="circle321"
     style="stroke-width:0.963069" />
  <circle
     cx="246.98853"
     cy="582.91919"
     r="57.055416"
     fill="#00a0f1"
     id="circle323"
     style="stroke-width:0.963069" />
  <rect
     x="292.93796"
     y="519.78833"
     width="705.92902"
     height="1.9261377"
     fill="#3f3d56"
     id="rect325"
     style="stroke-width:0.963069" />
  <path
     d="M 658.53953,106.73671 H 407.97829 v -5.16428 h -113.6142 v 5.16428 H 42.769979 a 16.948568,16.948568 0 0 0 -16.948586,16.94858 v 343.0954 a 16.948625,16.948625 0 0 0 16.948586,16.94864 H 658.53953 a 16.948625,16.948625 0 0 0 16.94859,-16.94864 v -343.0954 a 16.948568,16.948568 0 0 0 -16.94859,-16.94858 z"
     fill="#3f3d56"
     id="path327"
     style="stroke-width:0.963069" />
  <rect
     x="48.544243"
     y="136.68954"
     width="604.22101"
     height="340.84262"
     fill="#00a0f1"
     id="rect329"
     style="stroke-width:0.963069" />
  <circle
     cx="350.13834"
     cy="121.19671"
     r="6.1971364"
     fill="#00a0f1"
     id="circle331"
     style="stroke-width:0.963069" />
  <polygon
     points="50.406,403.667 50.406,49.754 498.374,403.667 "
     opacity="0.1"
     id="polygon333"
     transform="matrix(0.96306887,0,0,0.96306887,-1.5258789e-5,88.773386)" />
  <circle
     cx="143.08673"
     cy="393.94717"
     r="58.079601"
     fill="#f2f2f2"
     id="circle335"
     style="stroke-width:0.963069" />
  <rect
     x="491.1196"
     y="320.5087"
     width="56.440845"
     height="11.793607"
     fill="#3f3d56"
     id="rect337"
     style="stroke-width:0.963069" />
  <rect
     x="422.88513"
     y="228.68704"
     width="192.90974"
     height="5.0544071"
     fill="#3f3d56"
     id="rect339"
     style="stroke-width:0.963069" />
  <rect
     x="422.88513"
     y="244.69264"
     width="192.90974"
     height="5.0544071"
     fill="#3f3d56"
     id="rect341"
     style="stroke-width:0.963069" />
  <rect
     x="422.88513"
     y="260.69824"
     width="192.90974"
     height="5.0544071"
     fill="#3f3d56"
     id="rect343"
     style="stroke-width:0.963069" />
  <rect
     x="422.88513"
     y="276.70386"
     width="192.90974"
     height="5.0544071"
     fill="#3f3d56"
     id="rect345"
     style="stroke-width:0.963069" />
  <rect
     x="422.88513"
     y="292.70947"
     width="192.90974"
     height="5.0544071"
     fill="#3f3d56"
     id="rect347"
     style="stroke-width:0.963069" />
  <rect
     x="592.20764"
     y="143.60455"
     width="23.587223"
     height="23.587223"
     fill="#f2f2f2"
     id="rect349"
     style="stroke-width:0.963069" />
  <path
     d="m 626.74607,178.14299 h -28.64166 v -28.64167 h 28.64166 z m -27.39633,-1.24525 h 26.15105 v -26.15108 h -26.15105 z"
     fill="#3f3d56"
     id="path351"
     style="stroke-width:0.963069" />
  <path
     d="m 692.45333,471.33503 h -58.96805 v -4.24861 a 0.84237708,0.84237708 0 0 0 -0.8424,-0.8424 h -20.21761 a 0.84237708,0.84237708 0 0 0 -0.84241,0.8424 v 4.24861 h -12.63601 v -4.24861 a 0.84236745,0.84236745 0 0 0 -0.8424,-0.8424 h -20.21761 a 0.84237708,0.84237708 0 0 0 -0.8424,0.8424 v 4.24861 h -12.63601 v -4.24861 a 0.84237708,0.84237708 0 0 0 -0.8424,-0.8424 h -20.21758 a 0.84237708,0.84237708 0 0 0 -0.84241,0.8424 v 4.24861 H 529.87 v -4.24861 a 0.84237708,0.84237708 0 0 0 -0.8424,-0.8424 h -20.21762 a 0.84237708,0.84237708 0 0 0 -0.8424,0.8424 v 4.24861 h -12.63601 v -4.24861 a 0.84237708,0.84237708 0 0 0 -0.8424,-0.8424 h -20.21761 a 0.84236745,0.84236745 0 0 0 -0.8424,0.8424 v 4.24861 h -12.63601 v -4.24861 a 0.84237708,0.84237708 0 0 0 -0.84241,-0.8424 h -20.21761 a 0.84237708,0.84237708 0 0 0 -0.8424,0.8424 v 4.24861 h -12.63604 v -4.24861 a 0.84237708,0.84237708 0 0 0 -0.8424,-0.8424 h -158.3713 a 0.84237708,0.84237708 0 0 0 -0.8424,0.8424 v 4.24861 h -12.63601 v -4.24861 a 0.84237708,0.84237708 0 0 0 -0.8424,-0.8424 h -20.21762 a 0.84236745,0.84236745 0 0 0 -0.84239,0.8424 v 4.24861 h -12.63601 v -4.24861 a 0.84237708,0.84237708 0 0 0 -0.84241,-0.8424 h -20.21761 a 0.84237708,0.84237708 0 0 0 -0.84241,0.8424 v 4.24861 h -12.63601 v -4.24861 a 0.84236745,0.84236745 0 0 0 -0.84239,-0.8424 h -20.21762 a 0.84237708,0.84237708 0 0 0 -0.8424,0.8424 v 4.24861 h -12.63597 v -4.24861 a 0.84237708,0.84237708 0 0 0 -0.8424,-0.8424 h -20.21766 a 0.84237708,0.84237708 0 0 0 -0.8424,0.8424 v 4.24861 h -12.636 v -4.24861 a 0.84237708,0.84237708 0 0 0 -0.84241,-0.8424 H 94.348857 a 0.84237708,0.84237708 0 0 0 -0.842397,0.8424 v 4.24861 H 80.870448 v -4.24861 a 0.84237708,0.84237708 0 0 0 -0.842397,-0.8424 H 59.810433 a 0.84236745,0.84236745 0 0 0 -0.842396,0.8424 v 4.24861 H 20.217603 A 20.217637,20.217637 0 0 0 -1.5258789e-5,491.55265 v 9.14193 A 20.217618,20.217618 0 0 0 20.217603,520.91214 H 692.45333 a 20.217608,20.217608 0 0 0 20.21761,-20.21756 v -9.14193 a 20.217628,20.217628 0 0 0 -20.21761,-20.21762 z"
     fill="#3f3d56"
     id="path353"
     style="stroke-width:0.963069" />
  <path
     d="m 157.14525,430.22295 a 73.193234,73.193234 0 1 1 73.19323,-73.19324 73.276193,73.276193 0 0 1 -73.19323,73.19324 z m 0,-144.46033 a 71.267096,71.267096 0 1 0 71.26709,71.26709 71.34785,71.34785 0 0 0 -71.26709,-71.26709 z"
     fill="#3f3d56"
     id="path355"
     style="stroke-width:0.963069" />
  <rect
     x="564.52344"
     y="120.11477"
     width="245.58209"
     height="1.9261377"
     fill="#3f3d56"
     id="rect357"
     style="stroke-width:0.963069" />
  <rect
     x="391.17099"
     y="628.61511"
     width="705.92902"
     height="1.9261377"
     fill="#3f3d56"
     id="rect359"
     style="stroke-width:0.963069" />
  <rect
     x="185.55602"
     y="717.21741"
     width="245.58209"
     height="1.9261377"
     fill="#3f3d56"
     id="rect361"
     style="stroke-width:0.963069" />
  <rect
     x="453.60544"
     y="618.46124"
     width="26.965929"
     height="26.965929"
     fill="#00a0f1"
     id="rect363"
     style="stroke-width:0.963069" />
  <path
     d="m 496.94352,630.01809 h -32.74434 v -32.74434 h 32.74434 z m -31.32068,-1.42366 h 29.89701 v -29.89701 h -29.89701 z"
     fill="#3f3d56"
     id="path365"
     style="stroke-width:0.963069" />
  <rect
     x="766.60284"
     y="109.9609"
     width="26.965929"
     height="26.965929"
     fill="#00a0f1"
     id="rect367"
     style="stroke-width:0.963069" />
  <path
     d="M 809.9409,121.51773 H 777.19656 V 88.773386 h 32.74434 z m -31.32068,-1.42367 h 29.89701 V 90.197052 h -29.89701 z"
     fill="#3f3d56"
     id="path369"
     style="stroke-width:0.963069" />
  <rect
     x="1038.1882"
     y="618.46124"
     width="26.965929"
     height="26.965929"
     fill="#00a0f1"
     id="rect371"
     style="stroke-width:0.963069" />
  <path
     d="m 1081.5263,630.01809 h -32.7443 v -32.74434 h 32.7443 z m -31.3206,-1.42366 h 29.897 v -29.89701 h -29.897 z"
     fill="#3f3d56"
     id="path373"
     style="stroke-width:0.963069" />
  <path
     d="m 1018.1288,312.16513 h -2.2907 V 249.41002 A 36.320929,36.320929 0 0 0 979.51701,213.08906 H 846.56202 a 36.320919,36.320919 0 0 0 -36.32106,36.32096 v 344.2792 a 36.320929,36.320929 0 0 0 36.32106,36.32097 h 132.95501 a 36.320929,36.320929 0 0 0 36.32107,-36.32097 V 356.83524 h 2.2908 z"
     fill="#3f3d56"
     id="path375"
     style="stroke-width:0.963069" />
  <path
     d="m 1008.1034,251.54475 v 343.77706 a 27.125056,27.125056 0 0 1 -27.12024,27.12965 H 847.3864 A 27.124941,27.124941 0 0 1 820.26638,595.32181 V 251.54475 a 27.122909,27.122909 0 0 1 27.12002,-27.12002 h 16.20845 a 12.885091,12.885091 0 0 0 11.93243,17.74936 h 76.16911 a 12.884975,12.884975 0 0 0 11.93238,-17.74936 h 17.3545 a 27.122986,27.122986 0 0 1 27.12013,27.12002 z"
     fill="#00a0f1"
     id="path377"
     style="stroke-width:0.963069" />
  <rect
     x="894.28613"
     y="451.09692"
     width="39.797443"
     height="11.793607"
     fill="#3f3d56"
     id="rect379"
     style="stroke-width:0.963069" />
  <rect
     x="846.17285"
     y="359.27527"
     width="136.02412"
     height="5.0544071"
     fill="#3f3d56"
     id="rect381"
     style="stroke-width:0.963069" />
  <rect
     x="846.17285"
     y="375.28088"
     width="136.02412"
     height="5.0544071"
     fill="#3f3d56"
     id="rect383"
     style="stroke-width:0.963069" />
  <rect
     x="846.17285"
     y="391.28647"
     width="136.02412"
     height="5.0544071"
     fill="#3f3d56"
     id="rect385"
     style="stroke-width:0.963069" />
  <rect
     x="846.17285"
     y="407.29208"
     width="136.02412"
     height="5.0544071"
     fill="#3f3d56"
     id="rect387"
     style="stroke-width:0.963069" />
  <rect
     x="846.17285"
     y="423.2977"
     width="136.02412"
     height="5.0544071"
     fill="#3f3d56"
     id="rect389"
     style="stroke-width:0.963069" />
  <rect
     x="895.34924"
     y="292.15305"
     width="23.587223"
     height="23.587223"
     fill="#f2f2f2"
     id="rect391"
     style="stroke-width:0.963069" />
  <path
     d="m 904.37876,298.05139 v 28.64166 h 28.64167 v -28.64166 z m 27.39931,27.3993 h -26.15695 v -26.15695 h 26.15695 z"
     fill="#3f3d56"
     id="path393"
     style="stroke-width:0.963069" />
  <path
     d="m 1008.1034,558.60966 v 36.71218 a 27.125056,27.125056 0 0 1 -27.12024,27.12965 H 847.3864 A 27.124941,27.124941 0 0 1 820.26638,595.32184 V 410.21038 l 112.55386,88.92014 1.92614,1.52165 20.93712,16.5359 1.95503,1.55054 z"
     opacity="0.1"
     id="path395"
     style="stroke-width:0.963069" />
  <circle
     cx="902.62805"
     cy="569.0625"
     r="42.247742"
     fill="#f2f2f2"
     id="circle397"
     style="stroke-width:0.963069" />
  <path
     d="m 308.34706,719.14361 a 83.786992,83.786992 0 1 1 83.78699,-83.78699 83.881931,83.881931 0 0 1 -83.78699,83.78699 z m 0,-165.64785 a 81.860854,81.860854 0 1 0 81.86085,81.86086 81.953588,81.953588 0 0 0 -81.86085,-81.86086 z"
     fill="#3f3d56"
     id="path399"
     style="stroke-width:0.963069" />
  <path
     d="m 915.08045,601.64921 a 52.968788,52.968788 0 1 1 52.96879,-52.96879 53.02872,53.02872 0 0 1 -52.96879,52.96879 z m 0,-104.01144 a 51.04265,51.04265 0 1 0 51.04265,51.04265 51.100078,51.100078 0 0 0 -51.04265,-51.04265 z"
     fill="#3f3d56"
     id="path401"
     style="stroke-width:0.963069" />
  <metadata
     id="metadata582">
    <rdf:RDF>
      <cc:Work
         rdf:about="">
        <dc:title>progressive_app</dc:title>
      </cc:Work>
    </rdf:RDF>
  </metadata>
</svg>
